<svg width="26" height="21" viewBox="0 0 26 21" fill="none" xmlns="http://www.w3.org/2000/svg">
<g id="Icon" clip-path="url(#clip0_1_183)">
<path id="Vector" d="M24.3827 18.6445C24.3827 18.944 24.2785 19.1979 24.0702 19.4062C23.8619 19.6146 23.608 19.7188 23.3085 19.7188H18.5038V12.8633C18.5038 12.8372 18.5038 12.8047 18.5038 12.7656C18.5038 12.7266 18.5038 12.6875 18.5038 12.6484L18.4843 12.375L18.7577 12.2969C18.8619 12.2708 18.9693 12.2513 19.08 12.2383C19.1906 12.2253 19.3046 12.2188 19.4218 12.2188H21.8632C22.5533 12.2188 23.1457 12.4661 23.6405 12.9609C24.1353 13.4557 24.3827 14.0482 24.3827 14.7383V18.6445ZM17.7225 19.7188H8.34753V12.8633C8.34753 12.1732 8.59493 11.5807 9.08972 11.0859C9.58451 10.5911 10.1835 10.3438 10.8866 10.3438H15.203C15.8931 10.3438 16.4856 10.5911 16.9803 11.0859C17.4751 11.5807 17.7225 12.1732 17.7225 12.8633V19.7188ZM7.56628 12.6484C7.56628 12.6875 7.56628 12.7266 7.56628 12.7656C7.56628 12.8047 7.56628 12.8372 7.56628 12.8633V19.7188H2.7616C2.46212 19.7188 2.20821 19.6146 1.99988 19.4062C1.79154 19.1979 1.68738 18.944 1.68738 18.6445V14.7383C1.68738 14.0482 1.93477 13.4557 2.42957 12.9609C2.92436 12.4661 3.52332 12.2188 4.22644 12.2188H6.66785C6.77201 12.2188 6.87944 12.2253 6.99011 12.2383C7.10079 12.2513 7.21472 12.2708 7.33191 12.2969L7.58582 12.375L7.56628 12.6484ZM21.8632 11.4375H19.4218C19.2655 11.4375 19.1158 11.4473 18.9725 11.4668C18.8293 11.4863 18.6861 11.5156 18.5428 11.5547L18.2694 11.6133L18.1522 11.3789C17.8658 10.819 17.4589 10.3763 16.9315 10.0508C16.4042 9.72526 15.828 9.5625 15.203 9.5625H10.8866C10.2616 9.5625 9.68217 9.72526 9.14832 10.0508C8.61446 10.3763 8.20431 10.819 7.91785 11.3789L7.80066 11.6133L7.52722 11.5547C7.38399 11.5156 7.24076 11.4863 7.09753 11.4668C6.95431 11.4473 6.81108 11.4375 6.66785 11.4375H4.22644C3.30196 11.4375 2.51746 11.7598 1.87292 12.4043C1.22839 13.0488 0.906128 13.8268 0.906128 14.7383V18.6445C0.906128 19.1523 1.08842 19.5885 1.453 19.9531C1.81759 20.3177 2.25378 20.5 2.7616 20.5H23.3085C23.8293 20.5 24.2688 20.3177 24.6268 19.9531C24.9849 19.5885 25.1639 19.1523 25.1639 18.6445V14.7383C25.1639 13.8268 24.8417 13.0488 24.1971 12.4043C23.5526 11.7598 22.7746 11.4375 21.8632 11.4375ZM5.43738 9.5625C4.85144 9.5625 4.35014 9.35417 3.93347 8.9375C3.5168 8.52083 3.30847 8.01953 3.30847 7.43359C3.30847 6.84766 3.5168 6.34635 3.93347 5.92969C4.35014 5.51302 4.85144 5.30469 5.43738 5.30469C6.02332 5.30469 6.52462 5.51302 6.94128 5.92969C7.35795 6.34635 7.56628 6.84766 7.56628 7.43359C7.56628 8.01953 7.35795 8.52083 6.94128 8.9375C6.52462 9.35417 6.02332 9.5625 5.43738 9.5625ZM5.43738 4.52344C4.64311 4.52344 3.95951 4.8099 3.3866 5.38281C2.81368 5.95573 2.52722 6.63932 2.52722 7.43359C2.52722 7.82422 2.60209 8.19531 2.75183 8.54688C2.90157 8.89844 3.11316 9.21094 3.3866 9.48438C3.66003 9.75781 3.97253 9.9694 4.3241 10.1191C4.67566 10.2689 5.04675 10.3438 5.43738 10.3438C6.24467 10.3438 6.93152 10.0605 7.49792 9.49414C8.06433 8.92773 8.34753 8.24089 8.34753 7.43359C8.34753 6.63932 8.06433 5.95573 7.49792 5.38281C6.93152 4.8099 6.24467 4.52344 5.43738 4.52344ZM13.035 7.70703C12.1496 7.70703 11.3912 7.39453 10.7596 6.76953C10.1281 6.14453 9.81238 5.38932 9.81238 4.50391C9.81238 3.61849 10.1281 2.86003 10.7596 2.22852C11.3912 1.59701 12.1496 1.28125 13.035 1.28125C13.9205 1.28125 14.6789 1.59701 15.3104 2.22852C15.9419 2.86003 16.2577 3.61849 16.2577 4.50391C16.2577 5.38932 15.9419 6.14453 15.3104 6.76953C14.6789 7.39453 13.9205 7.70703 13.035 7.70703ZM13.035 0.5C12.4882 0.5 11.9673 0.604166 11.4725 0.8125C10.9908 1.02083 10.5708 1.30729 10.2128 1.67188C9.8547 2.03646 9.57149 2.45963 9.36316 2.94141C9.1418 3.42318 9.03113 3.94401 9.03113 4.50391C9.03113 5.05078 9.1418 5.5651 9.36316 6.04688C9.57149 6.52865 9.8547 6.95182 10.2128 7.31641C10.5708 7.68099 10.9908 7.96745 11.4725 8.17578C11.9673 8.38411 12.4882 8.48828 13.035 8.48828C13.5819 8.48828 14.1027 8.38411 14.5975 8.17578C15.0793 7.96745 15.4992 7.68099 15.8573 7.31641C16.2154 6.95182 16.5051 6.52865 16.7264 6.04688C16.9348 5.5651 17.0389 5.05078 17.0389 4.50391C17.0389 3.94401 16.9348 3.42318 16.7264 2.94141C16.5051 2.45963 16.2154 2.03646 15.8573 1.67188C15.4992 1.30729 15.0793 1.02083 14.5975 0.8125C14.1027 0.604166 13.5819 0.5 13.035 0.5ZM20.6327 9.5625C20.0468 9.5625 19.5455 9.35417 19.1288 8.9375C18.7121 8.52083 18.5038 8.01953 18.5038 7.43359C18.5038 6.84766 18.7121 6.34635 19.1288 5.92969C19.5455 5.51302 20.0468 5.30469 20.6327 5.30469C21.2186 5.30469 21.7199 5.51302 22.1366 5.92969C22.5533 6.34635 22.7616 6.84766 22.7616 7.43359C22.7616 8.01953 22.5533 8.52083 22.1366 8.9375C21.7199 9.35417 21.2186 9.5625 20.6327 9.5625ZM20.6327 4.52344C19.8254 4.52344 19.1385 4.8099 18.5721 5.38281C18.0057 5.95573 17.7225 6.63932 17.7225 7.43359C17.7225 8.24089 18.009 8.92773 18.5819 9.49414C19.1548 10.0605 19.8384 10.3438 20.6327 10.3438C21.44 10.3438 22.1268 10.0605 22.6932 9.49414C23.2596 8.92773 23.5428 8.24089 23.5428 7.43359C23.5428 6.63932 23.2596 5.95573 22.6932 5.38281C22.1268 4.8099 21.44 4.52344 20.6327 4.52344Z" fill="#313434"/>
</g>
<defs>
<clipPath id="clip0_1_183">
<rect width="24.27" height="20" fill="white" transform="matrix(1 0 0 -1 0.900024 20.5)"/>
</clipPath>
</defs>
</svg>
