<svg width="21" height="21" viewBox="0 0 21 21" fill="none" xmlns="http://www.w3.org/2000/svg">
<g id="Icon" clip-path="url(#clip0_1_177)">
<path id="Vector" d="M17.2566 7.80469C17.1785 7.84375 17.1199 7.89909 17.0808 7.9707C17.0417 8.04232 17.0222 8.11719 17.0222 8.19531V18.3516C17.0222 18.7292 16.8855 19.0677 16.6121 19.3672C16.3386 19.6667 15.9936 19.8164 15.5769 19.8164C15.1863 19.8164 14.8445 19.6764 14.5515 19.3965C14.2585 19.1165 14.1121 18.7682 14.1121 18.3516V8.11719C14.1121 8.03906 14.0925 7.96419 14.0535 7.89258C14.0144 7.82096 13.9558 7.76562 13.8777 7.72656C13.2657 7.42708 12.7807 6.98763 12.4226 6.4082C12.0645 5.82878 11.8855 5.19401 11.8855 4.50391C11.8855 4.07422 11.9571 3.66732 12.1003 3.2832C12.2436 2.89909 12.4519 2.53776 12.7253 2.19922L13.2527 1.49609V4.58203C13.2527 4.66016 13.2722 4.73177 13.3113 4.79688C13.3503 4.86198 13.4089 4.91406 13.4871 4.95312L15.3425 5.73438C15.3816 5.73438 15.4076 5.73438 15.4207 5.73438C15.4337 5.73438 15.4597 5.73438 15.4988 5.73438C15.5378 5.73438 15.5639 5.73438 15.5769 5.73438C15.5899 5.73438 15.616 5.73438 15.655 5.73438L17.491 4.95312C17.5691 4.91406 17.6277 4.86198 17.6667 4.79688C17.7058 4.73177 17.7253 4.66016 17.7253 4.58203V1.49609L18.2527 2.19922C18.5261 2.4987 18.7377 2.85026 18.8875 3.25391C19.0372 3.65755 19.1121 4.07422 19.1121 4.50391C19.1902 5.19401 19.0535 5.83203 18.7019 6.41797C18.3503 7.00391 17.8686 7.46615 17.2566 7.80469ZM17.6472 0.578125C17.6082 0.539062 17.5691 0.516275 17.53 0.509766C17.491 0.503256 17.4519 0.5 17.4128 0.5C17.3738 0.5 17.3347 0.503256 17.2957 0.509766C17.2566 0.516275 17.2175 0.539062 17.1785 0.578125C17.1394 0.617188 17.0906 0.672525 17.032 0.744141C16.9734 0.815756 16.9441 0.890625 16.9441 0.96875V4.34766L16.7292 4.42578L15.655 4.875L15.4988 4.95312L15.3425 4.875L14.2683 4.42578L14.1902 4.34766V0.890625C14.1902 0.8125 14.1707 0.737631 14.1316 0.666016C14.0925 0.5944 14.0339 0.539062 13.9558 0.5C13.9167 0.5 13.8777 0.5 13.8386 0.5C13.7996 0.5 13.7605 0.5 13.7214 0.5C13.6824 0.5 13.6466 0.503256 13.614 0.509766C13.5815 0.516275 13.5652 0.539062 13.5652 0.578125C12.797 0.955729 12.1947 1.50586 11.7585 2.22852C11.3223 2.95117 11.1042 3.73568 11.1042 4.58203C11.1042 5.35026 11.2865 6.06315 11.6511 6.7207C12.0157 7.37825 12.5235 7.92188 13.1746 8.35156L13.3308 8.42969V18.2734C13.3308 18.8854 13.5489 19.4095 13.9851 19.8457C14.4213 20.2819 14.9519 20.5 15.5769 20.5C16.1889 20.5 16.713 20.2819 17.1492 19.8457C17.5854 19.4095 17.8035 18.8854 17.8035 18.2734V8.42969L17.9597 8.35156C18.6108 7.92188 19.1186 7.36523 19.4832 6.68164C19.8477 5.99805 20.03 5.27214 20.03 4.50391C20.03 3.65755 19.8152 2.88607 19.3855 2.18945C18.9558 1.49284 18.3764 0.955729 17.6472 0.578125ZM11.9441 19.5039C11.918 19.8034 11.7976 20.0573 11.5828 20.2656C11.3679 20.474 11.1042 20.5781 10.7917 20.5781H9.26831C8.95581 20.5781 8.69214 20.474 8.47729 20.2656C8.26245 20.0573 8.14201 19.8034 8.11597 19.5039L8.03784 18.2734V18.0391L7.80347 17.9609C7.56909 17.8828 7.33797 17.7982 7.11011 17.707C6.88224 17.6159 6.65112 17.4987 6.41675 17.3555L6.18237 17.2773L6.02612 17.4141L5.10815 18.1953C4.99097 18.2734 4.87052 18.3451 4.74683 18.4102C4.62313 18.4753 4.48966 18.5078 4.34644 18.5078C4.19019 18.5078 4.03719 18.4753 3.88745 18.4102C3.73771 18.3451 3.60425 18.2734 3.48706 18.1953L2.33472 17.043C2.10034 16.8086 1.9799 16.5514 1.97339 16.2715C1.96688 15.9915 2.06128 15.7344 2.25659 15.5L3.03784 14.582L3.25269 14.3477L3.17456 14.1133C3.07039 13.8789 2.96297 13.6478 2.85229 13.4199C2.74162 13.1921 2.64722 12.9609 2.56909 12.7266L2.49097 12.4922H2.25659L1.02612 12.4141C0.765706 12.4141 0.534587 12.3034 0.332764 12.082C0.130941 11.8607 0.0300293 11.6133 0.0300293 11.3398V9.73828C0.0300293 9.42578 0.134196 9.16211 0.342529 8.94727C0.550863 8.73242 0.804769 8.61198 1.10425 8.58594L2.33472 8.50781H2.56909L2.64722 8.27344C2.72534 8.03906 2.80998 7.80794 2.90112 7.58008C2.99227 7.35221 3.10946 7.12109 3.25269 6.88672V6.65234L3.11597 6.49609L2.33472 5.57812C2.1394 5.34375 2.045 5.07357 2.05151 4.76758C2.05802 4.46159 2.17847 4.19141 2.41284 3.95703L3.56519 2.80469C3.68237 2.6875 3.81584 2.60612 3.96558 2.56055C4.11532 2.51497 4.2618 2.49219 4.40503 2.49219C4.56128 2.49219 4.70125 2.51497 4.82495 2.56055C4.94865 2.60612 5.06909 2.6875 5.18628 2.80469L6.10425 3.58594L6.18237 3.72266L6.41675 3.64453C6.65112 3.54037 6.88224 3.43294 7.11011 3.32227C7.33797 3.21159 7.56909 3.11719 7.80347 3.03906L8.03784 2.96094V2.72656L8.11597 1.49609C8.14201 1.23568 8.26245 1.00456 8.47729 0.802734C8.69214 0.600912 8.95581 0.5 9.26831 0.5H10.03V1.33984H8.95581V1.65234L8.79956 3.35156C8.79956 3.42969 8.76701 3.5013 8.7019 3.56641C8.6368 3.63151 8.56519 3.68359 8.48706 3.72266C8.10946 3.80078 7.74487 3.91471 7.39331 4.06445C7.04175 4.21419 6.69019 4.38672 6.33862 4.58203C6.29956 4.62109 6.2605 4.64388 6.22144 4.65039C6.18237 4.6569 6.14331 4.66016 6.10425 4.66016C6.06519 4.66016 6.0131 4.6569 5.948 4.65039C5.88289 4.64388 5.83081 4.62109 5.79175 4.58203L4.56128 3.42969L4.34644 3.27344L4.11206 3.42969L2.95972 4.58203L2.80347 4.81641L3.03784 5.03125L4.19019 6.33984C4.26831 6.41797 4.30737 6.49609 4.30737 6.57422C4.30737 6.65234 4.26831 6.73047 4.19019 6.80859C3.95581 7.16016 3.7605 7.51172 3.60425 7.86328C3.448 8.21484 3.33081 8.57943 3.25269 8.95703C3.21362 9.03516 3.17131 9.10677 3.12573 9.17188C3.08016 9.23698 2.99878 9.26953 2.88159 9.26953L1.18237 9.42578H0.869873V11.5742H1.18237L2.88159 11.7305C2.95972 11.7305 3.03133 11.763 3.09644 11.8281C3.16154 11.8932 3.21362 11.9648 3.25269 12.043C3.33081 12.4206 3.44474 12.7852 3.59448 13.1367C3.74422 13.4883 3.91675 13.8398 4.11206 14.1914C4.15112 14.2695 4.17065 14.3574 4.17065 14.4551C4.17065 14.5527 4.15112 14.6211 4.11206 14.6602L2.95972 15.9688L2.72534 16.1836L4.34644 17.8047L4.56128 17.5703L5.86987 16.418C5.90894 16.3789 5.95125 16.3561 5.99683 16.3496C6.0424 16.3431 6.10425 16.3398 6.18237 16.3398C6.22144 16.3398 6.2605 16.3431 6.29956 16.3496C6.33862 16.3561 6.37769 16.3789 6.41675 16.418C6.75529 16.6133 7.1036 16.7858 7.46167 16.9355C7.81974 17.0853 8.18758 17.1992 8.56519 17.2773C8.64331 17.3164 8.71492 17.3587 8.78003 17.4043C8.84513 17.4499 8.87769 17.5312 8.87769 17.6484L9.03394 19.3477V19.6602H11.1824V19.3477C11.1824 19.3477 11.1824 19.3346 11.1824 19.3086C11.1824 19.2826 11.1824 19.2695 11.1824 19.2695H11.9441C11.9441 19.3086 11.9539 19.3477 11.9734 19.3867C11.9929 19.4258 11.9832 19.4648 11.9441 19.5039ZM11.4167 14.2695V15.1094C11.1824 15.1875 10.9545 15.2461 10.7332 15.2852C10.5118 15.3242 10.3035 15.3438 10.1082 15.3438C9.79565 15.3438 9.48641 15.3079 9.18042 15.2363C8.87443 15.1647 8.56519 15.0703 8.25269 14.9531C7.95321 14.849 7.67977 14.7057 7.43237 14.5234C7.18498 14.3411 6.9506 14.1523 6.72925 13.957C6.2605 13.5013 5.89917 12.974 5.64526 12.375C5.39136 11.776 5.2644 11.151 5.2644 10.5C5.2644 9.90104 5.36206 9.33464 5.55737 8.80078C5.76571 8.26693 6.04891 7.78841 6.40698 7.36523C6.76506 6.94206 7.19149 6.58724 7.68628 6.30078C8.19409 6.01432 8.74748 5.82552 9.34644 5.73438C9.34644 5.73438 9.3562 5.73438 9.37573 5.73438C9.39526 5.73438 9.40503 5.73438 9.40503 5.73438C9.40503 5.73438 9.41805 5.73438 9.44409 5.73438C9.47013 5.73438 9.48315 5.73438 9.48315 5.73438V6.57422C8.45451 6.73047 7.62118 7.18294 6.98315 7.93164C6.34513 8.68034 6.02612 9.53646 6.02612 10.5C6.02612 11.0339 6.1368 11.5449 6.35815 12.0332C6.57951 12.5215 6.87899 12.9609 7.25659 13.3516C7.64722 13.6901 8.08342 13.9668 8.56519 14.1816C9.04696 14.3965 9.53524 14.5039 10.03 14.5039C10.2644 14.5039 10.4955 14.4844 10.7234 14.4453C10.9513 14.4062 11.1824 14.3477 11.4167 14.2695Z" fill="#313434"/>
</g>
<defs>
<clipPath id="clip0_1_177">
<rect width="20" height="20" fill="white" transform="matrix(1 0 0 -1 0.0300293 20.5)"/>
</clipPath>
</defs>
</svg>
