<svg width="21" height="21" viewBox="0 0 21 21" fill="none" xmlns="http://www.w3.org/2000/svg">
<g id="Icon" clip-path="url(#clip0_1_189)">
<path id="Vector" d="M10.03 0.5C10.2774 0.5 10.5085 0.545572 10.7234 0.636719C10.9382 0.727865 11.1303 0.858072 11.2996 1.02734L12.8425 2.57031C12.9467 2.67448 13.0671 2.75586 13.2039 2.81445C13.3406 2.87305 13.4871 2.90234 13.6433 2.90234H15.8308C16.3256 2.90234 16.7488 3.07812 17.1003 3.42969C17.4519 3.78125 17.6277 4.20443 17.6277 4.69922V6.88672C17.6277 7.04297 17.657 7.18945 17.7156 7.32617C17.7742 7.46289 17.8556 7.58333 17.9597 7.6875L19.5027 9.23047C19.8542 9.58203 20.03 10.0052 20.03 10.5C20.03 10.9948 19.8542 11.418 19.5027 11.7695L17.9597 13.3125C17.8556 13.4167 17.7742 13.5371 17.7156 13.6738C17.657 13.8105 17.6277 13.957 17.6277 14.1133V16.3008C17.6277 16.7956 17.4519 17.2188 17.1003 17.5703C16.7488 17.9219 16.3256 18.0977 15.8308 18.0977H13.6433C13.4871 18.0977 13.3406 18.127 13.2039 18.1855C13.0671 18.2441 12.9467 18.3255 12.8425 18.4297L11.2996 19.9727C11.1303 20.1419 10.9382 20.2721 10.7234 20.3633C10.5085 20.4544 10.2774 20.5 10.03 20.5C9.78263 20.5 9.55151 20.4544 9.33667 20.3633C9.12183 20.2721 8.92977 20.1419 8.7605 19.9727L7.21753 18.4297C7.11336 18.3255 6.99292 18.2441 6.8562 18.1855C6.71948 18.127 6.573 18.0977 6.41675 18.0977H4.22925C3.73446 18.0977 3.31128 17.9219 2.95972 17.5703C2.60815 17.2188 2.43237 16.7956 2.43237 16.3008V14.1133C2.43237 13.957 2.40308 13.8105 2.34448 13.6738C2.28589 13.5371 2.20451 13.4167 2.10034 13.3125L0.557373 11.7695C0.205811 11.418 0.0300293 10.9948 0.0300293 10.5C0.0300293 10.0052 0.205811 9.58203 0.557373 9.23047L2.10034 7.6875C2.20451 7.58333 2.28589 7.46289 2.34448 7.32617C2.40308 7.18945 2.43237 7.04297 2.43237 6.88672V4.69922C2.43237 4.20443 2.60815 3.78125 2.95972 3.42969C3.31128 3.07812 3.73446 2.90234 4.22925 2.90234H6.41675C6.573 2.90234 6.71948 2.87305 6.8562 2.81445C6.99292 2.75586 7.11336 2.67448 7.21753 2.57031L8.7605 1.02734C8.92977 0.858072 9.12183 0.727865 9.33667 0.636719C9.55151 0.545572 9.78263 0.5 10.03 0.5ZM10.03 1.18359C9.8868 1.18359 9.74683 1.21289 9.61011 1.27148C9.47339 1.33008 9.35295 1.41146 9.24878 1.51562L7.70581 3.05859C7.52352 3.22787 7.32495 3.35807 7.11011 3.44922C6.89526 3.54037 6.66414 3.58594 6.41675 3.58594H4.22925C3.92977 3.58594 3.66935 3.69662 3.448 3.91797C3.22664 4.13932 3.11597 4.39974 3.11597 4.69922V6.88672C3.11597 7.13411 3.07039 7.36523 2.97925 7.58008C2.8881 7.79492 2.75789 7.99349 2.58862 8.17578L1.04565 9.71875C0.8243 9.92708 0.713623 10.1875 0.713623 10.5C0.713623 10.8125 0.8243 11.0729 1.04565 11.2812L2.58862 12.8242C2.75789 13.0065 2.8881 13.2051 2.97925 13.4199C3.07039 13.6348 3.11597 13.8659 3.11597 14.1133V16.3008C3.11597 16.6003 3.22664 16.8607 3.448 17.082C3.66935 17.3034 3.92977 17.4141 4.22925 17.4141H6.41675C6.66414 17.4141 6.89526 17.4596 7.11011 17.5508C7.32495 17.6419 7.52352 17.7721 7.70581 17.9414L9.24878 19.4844C9.35295 19.5885 9.47339 19.6699 9.61011 19.7285C9.74683 19.7871 9.8868 19.8164 10.03 19.8164C10.1733 19.8164 10.3132 19.7871 10.45 19.7285C10.5867 19.6699 10.7071 19.5885 10.8113 19.4844L12.3542 17.9414C12.5365 17.7721 12.7351 17.6419 12.95 17.5508C13.1648 17.4596 13.3959 17.4141 13.6433 17.4141H15.8308C16.1303 17.4141 16.3907 17.3034 16.6121 17.082C16.8334 16.8607 16.9441 16.6003 16.9441 16.3008V14.1133C16.9441 13.8659 16.9897 13.6348 17.0808 13.4199C17.172 13.2051 17.3022 13.0065 17.4714 12.8242L19.0144 11.2812C19.2358 11.0729 19.3464 10.8125 19.3464 10.5C19.3464 10.1875 19.2358 9.92708 19.0144 9.71875L17.4714 8.17578C17.3022 7.99349 17.172 7.79492 17.0808 7.58008C16.9897 7.36523 16.9441 7.13411 16.9441 6.88672V4.69922C16.9441 4.39974 16.8334 4.13932 16.6121 3.91797C16.3907 3.69662 16.1303 3.58594 15.8308 3.58594H13.6433C13.3959 3.58594 13.1648 3.54037 12.95 3.44922C12.7351 3.35807 12.5365 3.22787 12.3542 3.05859L10.8113 1.51562C10.7071 1.41146 10.5867 1.33008 10.45 1.27148C10.3132 1.21289 10.1733 1.18359 10.03 1.18359ZM10.03 4.19141C10.9024 4.19141 11.7162 4.36068 12.4714 4.69922C13.2397 5.02474 13.9102 5.47396 14.4832 6.04688C15.0561 6.61979 15.5053 7.29036 15.8308 8.05859C16.1694 8.8138 16.3386 9.6276 16.3386 10.5C16.3386 11.3724 16.1694 12.1862 15.8308 12.9414C15.5053 13.7096 15.0561 14.3802 14.4832 14.9531C13.9102 15.526 13.2397 15.9753 12.4714 16.3008C11.7162 16.6393 10.9024 16.8086 10.03 16.8086C9.15763 16.8086 8.34383 16.6393 7.58862 16.3008C6.82039 15.9753 6.14982 15.526 5.5769 14.9531C5.00399 14.3802 4.55477 13.7096 4.22925 12.9414C3.89071 12.1862 3.72144 11.3724 3.72144 10.5C3.72144 9.6276 3.89071 8.8138 4.22925 8.05859C4.55477 7.29036 5.00399 6.61979 5.5769 6.04688C6.14982 5.47396 6.82039 5.02474 7.58862 4.69922C8.34383 4.36068 9.15763 4.19141 10.03 4.19141ZM10.03 4.89453C9.2618 4.89453 8.53263 5.03776 7.84253 5.32422C7.16545 5.6237 6.573 6.02734 6.06519 6.53516C5.55737 7.04297 5.15373 7.63542 4.85425 8.3125C4.56779 9.0026 4.42456 9.73177 4.42456 10.5C4.42456 11.2682 4.56779 11.9974 4.85425 12.6875C5.15373 13.3646 5.55737 13.957 6.06519 14.4648C6.573 14.9727 7.16545 15.3763 7.84253 15.6758C8.53263 15.9622 9.2618 16.1055 10.03 16.1055C10.7983 16.1055 11.5274 15.9622 12.2175 15.6758C12.8946 15.3763 13.4871 14.9727 13.9949 14.4648C14.5027 13.957 14.9063 13.3646 15.2058 12.6875C15.4923 11.9974 15.6355 11.2682 15.6355 10.5C15.6355 9.73177 15.4923 9.0026 15.2058 8.3125C14.9063 7.63542 14.5027 7.04297 13.9949 6.53516C13.4871 6.02734 12.8946 5.6237 12.2175 5.32422C11.5274 5.03776 10.7983 4.89453 10.03 4.89453ZM10.03 7.02344C10.0821 7.02344 10.1342 7.03646 10.1863 7.0625C10.2384 7.08854 10.2839 7.1276 10.323 7.17969L11.8464 9.64062L13.6238 8.44922C13.6889 8.41016 13.7572 8.39062 13.8289 8.39062C13.9005 8.39062 13.9623 8.41667 14.0144 8.46875C14.0795 8.50781 14.1218 8.56315 14.1414 8.63477C14.1609 8.70638 14.1641 8.77474 14.1511 8.83984L12.7644 13.7031C12.7514 13.7682 12.7156 13.8268 12.657 13.8789C12.5984 13.931 12.53 13.957 12.4519 13.957H7.60815C7.53003 13.957 7.46167 13.931 7.40308 13.8789C7.34448 13.8268 7.30216 13.7682 7.27612 13.7031L5.90894 8.83984C5.88289 8.77474 5.88289 8.70638 5.90894 8.63477C5.93498 8.56315 5.97404 8.50781 6.02612 8.46875C6.09123 8.41667 6.15959 8.39062 6.2312 8.39062C6.30282 8.39062 6.36466 8.41016 6.41675 8.44922L8.19409 9.64062L9.73706 7.17969C9.7631 7.1276 9.80217 7.08854 9.85425 7.0625C9.90633 7.03646 9.96492 7.02344 10.03 7.02344ZM10.03 8.01953L8.60425 10.3047C8.57821 10.3438 8.54565 10.3763 8.50659 10.4023C8.46753 10.4284 8.42196 10.4479 8.36987 10.4609C8.33081 10.474 8.28849 10.474 8.24292 10.4609C8.19735 10.4479 8.15503 10.4284 8.11597 10.4023L6.8269 9.54297L7.88159 13.2539H12.1785L13.2332 9.54297L11.9441 10.4219C11.905 10.4479 11.8627 10.4642 11.8171 10.4707C11.7716 10.4772 11.7292 10.474 11.6902 10.4609C11.6381 10.4479 11.5925 10.4284 11.5535 10.4023C11.5144 10.3763 11.4884 10.3438 11.4753 10.3047L10.03 8.01953Z" fill="#313434"/>
</g>
<defs>
<clipPath id="clip0_1_189">
<rect width="20" height="20" fill="white" transform="matrix(1 0 0 -1 0.0300293 20.5)"/>
</clipPath>
</defs>
</svg>
