      <svg width="400" height="253" viewBox="0 0 410 253" fill="none" xmlns="http://www.w3.org/2000/svg">
<g clip-path="url(#clip0_103_159)">
<path id="sign" d="M62.0938 158.896C57.9896 156.223 51.374 155.859 43.5584 157.902C42.6274 158.11 41.7518 158.372 40.8251 158.688C40.8763 158.479 40.9318 158.27 40.9874 158.057C41.0984 157.533 40.714 157.009 40.1674 156.854C39.6207 156.747 39.0185 157.116 38.9075 157.64C38.8007 158.217 38.6341 158.843 38.4718 159.527C33.0052 161.57 27.7563 164.505 23.6563 167.964C15.8919 174.461 13.3209 181.694 16.6009 187.933C16.8187 188.404 17.4764 188.613 17.9676 188.351C18.5142 188.142 18.7321 187.512 18.4587 186.988C16.8187 183.897 15.5076 177.449 25.023 169.483C28.5763 166.498 33.1119 163.874 37.8697 161.938C36.614 167.178 34.8075 174.305 32.7874 182.218C29.6141 194.59 26.0608 208.582 23.4898 219.533C22.0676 225.563 21.0853 230.017 20.5386 233.214C19.6076 238.561 19.8297 239.609 20.923 239.973C21.0298 240.026 21.1963 240.026 21.3586 240.026C22.3409 240.026 23.1097 238.769 24.3653 236.043C24.6386 235.572 24.3653 234.942 23.8741 234.733C23.3275 234.524 22.6698 234.733 22.4519 235.257C22.3964 235.417 22.2897 235.572 22.2341 235.679C23.1097 229.595 26.6075 215.185 30.2163 200.878C31.5275 203.551 33.9875 205.176 37.2162 205.385C37.434 205.385 37.7074 205.385 37.9252 205.385C42.0807 205.385 47.0007 203.08 51.4851 198.991C56.8962 194.066 61.4916 186.832 64.7716 178.026C69.0894 166.498 65.7027 161.254 62.0938 158.896ZM62.8028 177.347C58.8138 188.036 53.6717 194.221 50.0074 197.574C45.6896 201.504 41.0984 203.604 37.3785 203.342C34.2608 203.183 32.1852 201.349 31.5275 198.205C31.4207 197.943 31.2541 197.734 31.0363 197.574C32.3475 192.387 33.6586 187.303 34.8075 182.689C36.9941 174.043 38.963 166.392 40.2784 160.992C41.534 160.575 42.8452 160.153 44.1051 159.842C51.2673 158.008 57.3916 158.27 60.945 160.575C66.3006 164.087 64.9339 171.632 62.8028 177.347Z" fill="#D4AF37"/>
<path id="sign" d="M78.8224 198.152C78.3312 197.837 77.6735 197.944 77.3489 198.414C73.2447 203.916 69.9091 207.376 66.6291 209.631C64.9891 210.733 63.4047 210.941 62.3668 210.209C61.7091 209.734 59.6848 207.638 62.038 200.302C67.3424 196.11 70.238 192.126 69.4735 190.03C69.2002 189.4 68.5425 188.982 67.8335 188.982C65.6468 189.036 62.3113 192.65 60.1247 199.409C57.4426 207.744 59.6335 210.782 61.1625 211.83C61.9269 212.407 62.8025 212.669 63.789 212.669C65.0447 212.669 66.4668 212.198 67.8335 211.257C71.3313 208.845 74.7779 205.28 79.0402 199.569C79.369 199.098 79.2623 198.468 78.8224 198.152ZM67.3936 191.181C67.1758 192.02 66.249 193.698 63.678 196.212C65.1002 193.174 66.6291 191.705 67.3936 191.181Z" fill="#D4AF37"/>
<path id="sign" d="M122.017 178.92C121.308 177.974 118.135 177.397 84.1818 178.134C85.2751 173.889 86.2574 170.061 87.1329 166.97C87.2995 166.393 86.9707 165.869 86.424 165.713C85.8773 165.554 85.2751 165.869 85.1128 166.393C84.1818 169.693 83.144 173.676 81.9951 178.183C78.9885 178.236 75.7085 178.289 72.1509 178.396C67.2864 178.498 63.4597 178.605 61.982 178.605C61.3798 178.605 60.8887 179.075 60.8887 179.599C60.8887 180.177 61.3798 180.647 61.982 180.647C63.5152 180.594 67.3419 180.545 72.2064 180.385C74.7774 180.332 77.9464 180.283 81.504 180.177C79.1508 189.715 76.4729 201.141 74.0685 212.304C72.3174 220.48 70.8952 227.554 69.9642 232.745C69.473 235.467 69.1442 237.616 68.9819 239.086C68.7641 241.075 68.653 242.23 69.6909 242.594C69.8574 242.594 69.9642 242.647 70.1308 242.647C71.0575 242.647 71.5529 241.391 71.9886 240.236C72.2064 239.712 71.933 239.135 71.3864 238.926C71.2796 238.926 71.2241 238.873 71.113 238.873C71.6597 234.787 73.2997 225.613 76.4729 211.15C78.8219 200.195 81.3929 189.244 83.6907 180.123C98.724 179.808 118.246 179.546 120.488 180.283C120.868 180.594 121.359 180.594 121.799 180.332C122.235 180.021 122.346 179.391 122.017 178.92Z" fill="#D4AF37"/>
<path id="sign" d="M101.238 198.152C100.747 197.837 100.09 197.944 99.7649 198.414C95.6607 203.916 92.3251 207.376 89.0451 209.631C87.4051 210.733 85.8207 210.941 84.7829 210.209C84.1251 209.734 82.1008 207.638 84.454 200.302C89.7584 196.11 92.654 192.126 91.8895 190.03C91.6162 189.4 90.9585 188.982 90.2495 188.982C88.0629 189.036 84.7273 192.65 82.5407 199.409C79.8586 207.744 82.0495 210.782 83.5785 211.83C84.343 212.407 85.2185 212.669 86.205 212.669C87.4607 212.669 88.8829 212.198 90.2495 211.257C93.7473 208.845 97.1939 205.28 101.456 199.569C101.785 199.098 101.678 198.468 101.238 198.152ZM89.8096 191.181C89.5918 192.02 88.665 193.698 86.094 196.212C87.5162 193.174 89.0451 191.705 89.8096 191.181Z" fill="#D4AF37"/>
<path id="sign" d="M122.289 197.996C121.743 197.734 121.089 197.943 120.867 198.467C114.58 211.15 108.623 217.651 107.307 217.438C107.2 217.389 105.287 215.604 111.463 197.419C111.629 196.948 112.009 195.847 111.138 195.27C110.314 194.64 109.387 195.217 107.854 196.212C106.214 197.21 103.972 198.623 102.225 198.414C107.803 189.191 107.256 187.148 105.996 186.362C104.027 185.261 101.187 188.458 99.8717 190.292C97.1939 194.275 97.2494 197.89 100.09 199.724C102.989 201.664 106.761 199.306 109.003 197.89C109.058 197.837 109.058 197.837 109.114 197.784C106.983 204.231 105.616 209.316 105.121 212.828C104.518 216.705 104.958 218.748 106.487 219.325C106.761 219.378 106.983 219.431 107.256 219.431C111.629 219.431 119.227 206.536 122.78 199.36C123.003 198.836 122.78 198.205 122.289 197.996ZM100.201 194.378C100.965 191.549 103.536 188.929 104.685 188.298C104.574 189.138 103.972 191.496 100.474 197.313C100.09 196.736 99.8162 195.847 100.201 194.378Z" fill="#D4AF37"/>
<path id="sign" d="M163.572 198.413C163.132 198.045 162.478 198.098 162.094 198.52C159.852 201.033 156.845 202.29 154.385 201.664C152.361 201.14 150.887 199.253 150.341 196.424C150.23 195.949 149.738 195.638 149.247 195.638C148.752 195.638 148.316 196.002 148.261 196.473C147.112 204.337 140.607 213.716 137.49 214.715C137.105 214.817 136.999 214.764 136.999 214.715C136.725 214.502 134.867 212.041 140.663 195.531C140.825 195.007 140.552 194.43 140.005 194.275C139.459 194.066 138.856 194.377 138.639 194.901C132.296 213.089 134.701 215.394 135.465 216.127C135.794 216.389 136.341 216.811 137.161 216.811C137.434 216.811 137.763 216.757 138.147 216.598C140.167 215.971 142.901 213.192 145.365 209.262C147.223 206.327 148.645 203.183 149.521 200.247C150.558 201.979 152.032 203.129 153.838 203.604C157.063 204.39 160.89 202.921 163.678 199.83C164.063 199.408 164.007 198.782 163.572 198.413Z" fill="#D4AF37"/>
<path id="sign" d="M184.399 198.206C183.908 197.997 183.25 198.206 183.033 198.677C178.877 206.799 175.764 209.37 174.286 209.108C173.684 209.001 171.715 207.9 171.224 198.73C171.224 198.313 170.895 197.944 170.515 197.838C170.075 197.735 169.584 197.838 169.366 198.206C169.037 198.575 168.708 198.992 168.379 199.463C167.013 201.244 165.21 203.655 163.024 205.911C162.695 206.275 162.422 206.488 162.255 206.59C161.875 204.756 163.895 197.735 167.124 195.533C168.05 194.902 169.31 194.432 171.006 196.319C171.386 196.736 172.044 196.79 172.479 196.425C172.919 196.11 172.975 195.426 172.646 195.009C170.566 192.704 168.597 192.753 167.286 193.175C163.075 194.591 160.235 202.345 160.124 205.911C160.068 207.376 160.508 208.322 161.384 208.637C162.75 209.161 164.117 207.745 164.553 207.274C166.41 205.333 168.106 203.237 169.31 201.612C169.913 207.589 171.386 210.573 173.85 211.097C174.068 211.097 174.286 211.151 174.504 211.151C178.224 211.151 182.213 204.916 184.895 199.569C185.168 199.045 184.946 198.468 184.399 198.206Z" fill="#D4AF37"/>
<path id="sign" d="M203.484 198.151C202.989 197.889 202.336 198.045 202.062 198.573C200.747 200.718 197.304 206.535 195.336 206.327C194.951 206.273 193.858 205.749 192.765 202.081C192 199.515 190.962 197.103 188.938 196.997C187.46 196.895 185.82 197.996 183.305 202.503C183.962 200.247 184.676 197.996 185.222 196.162C185.44 195.478 185.602 194.901 185.769 194.328C185.931 193.804 185.602 193.227 185.056 193.067C184.509 192.911 183.907 193.227 183.745 193.804C183.578 194.328 183.416 194.954 183.198 195.585C181.776 200.247 179.645 207.321 179.098 211.62C179.042 212.091 179.371 212.565 179.862 212.668C179.973 212.721 180.025 212.721 180.136 212.721C180.571 212.721 180.956 212.459 181.118 212.091C186.26 199.83 188.336 198.991 188.831 198.991C188.938 198.991 189.702 199.199 190.744 202.659C191.838 206.273 193.256 208.111 195.118 208.32C197.907 208.635 200.422 205.332 203.864 199.568C204.193 199.044 203.976 198.467 203.484 198.151Z" fill="#D4AF37"/>
<path id="sign" d="M240.392 166.078C240.007 165.763 239.516 165.661 239.025 165.763C236.672 166.5 232.461 177.451 228.416 195.479C228.305 195.795 228.143 196.057 227.976 196.372C227.703 194.329 226.285 193.752 225.79 193.592C223.441 192.913 219.721 194.955 217.154 200.195C215.185 204.129 214.801 209.263 217.261 210.626C218.465 211.306 220.541 211.203 223.547 207.011C224.863 205.227 226.012 203.499 227.105 201.821C226.503 204.809 225.901 207.953 225.354 211.257C224.316 217.127 223.547 222.052 223.112 225.613C222.236 232.585 222.676 233.531 223.77 233.842C223.876 233.895 224.043 233.895 224.15 233.895C225.136 233.895 225.79 232.692 226.118 231.906C226.392 231.435 226.174 230.804 225.627 230.596C225.354 230.436 225.025 230.436 224.752 230.542C224.863 228.287 225.41 223.153 227.43 211.621C228.416 205.857 229.454 200.719 230.441 196.212C234.541 188.77 236.616 182.482 238.312 177.504C238.53 176.873 238.747 176.3 238.914 175.776C241.81 167.441 240.716 166.447 240.392 166.078ZM221.801 205.857C219.721 208.739 218.572 209.001 218.299 208.899C217.479 208.424 217.205 204.809 219.067 201.035C220.925 197.26 223.441 195.479 224.807 195.479C224.97 195.479 225.081 195.479 225.192 195.533C226.063 195.741 225.901 197.26 225.845 197.682C225.79 198.153 226.063 198.623 226.558 198.783C225.192 201.035 223.603 203.393 221.801 205.857ZM236.945 175.146C236.727 175.67 236.509 176.247 236.343 176.873C235.361 179.706 234.267 182.903 232.79 186.518C235.087 177.819 237.163 172.366 238.474 169.644C238.256 170.901 237.765 172.681 236.945 175.146Z" fill="#D4AF37"/>
<path id="sign" d="M252.254 198.152C251.763 197.837 251.105 197.944 250.781 198.414C246.676 203.916 243.341 207.376 240.061 209.631C238.421 210.733 236.836 210.941 235.798 210.209C235.141 209.734 233.116 207.638 235.47 200.302C240.774 196.11 243.67 192.126 242.905 190.03C242.632 189.4 241.974 188.982 241.265 188.982C239.078 189.036 235.743 192.65 233.556 199.409C230.874 207.744 233.065 210.782 234.594 211.83C235.359 212.407 236.234 212.669 237.221 212.669C238.476 212.669 239.898 212.198 241.265 211.257C244.763 208.845 248.21 205.28 252.472 199.569C252.801 199.098 252.694 198.468 252.254 198.152ZM240.825 191.181C240.607 192.02 239.681 193.698 237.11 196.212C238.532 193.174 240.061 191.705 240.825 191.181Z" fill="#D4AF37"/>
<path id="sign" d="M271.283 198.151C270.788 197.889 270.134 198.045 269.861 198.573C268.546 200.718 265.103 206.535 263.134 206.327C262.75 206.273 261.657 205.749 260.563 202.081C259.799 199.515 258.761 197.103 256.737 196.997C255.259 196.895 253.619 197.996 251.103 202.503C251.761 200.247 252.474 197.996 253.021 196.162C253.239 195.478 253.401 194.901 253.568 194.328C253.73 193.804 253.401 193.227 252.855 193.067C252.308 192.911 251.706 193.227 251.543 193.804C251.377 194.328 251.215 194.954 250.997 195.585C249.575 200.247 247.443 207.321 246.897 211.62C246.841 212.091 247.17 212.565 247.661 212.668C247.772 212.721 247.823 212.721 247.935 212.721C248.37 212.721 248.755 212.459 248.917 212.091C254.059 199.83 256.135 198.991 256.63 198.991C256.737 198.991 257.501 199.199 258.543 202.659C259.637 206.273 261.055 208.111 262.917 208.32C265.705 208.635 268.221 205.332 271.663 199.568C271.992 199.044 271.774 198.467 271.283 198.151Z" fill="#D4AF37"/>
<path id="sign" d="M329.949 188.405C327.869 185.94 325.029 184.368 321.583 183.636C321.967 183.214 322.296 182.796 322.62 182.428C326.122 177.921 331.153 169.483 325.683 163.195C322.074 159.003 314.694 157.223 307.258 158.271C307.258 158.164 307.314 158.111 307.314 158.009C307.42 157.485 307.04 156.961 306.438 156.854C305.892 156.748 305.345 157.116 305.234 157.693C305.178 158.009 305.127 158.32 305.072 158.635C302.94 159.106 300.86 159.789 298.836 160.731C289.872 164.923 285.989 172.681 288.121 182.064C288.232 182.588 288.834 182.952 289.38 182.796C289.927 182.69 290.307 182.166 290.2 181.593C288.232 173.258 291.729 166.286 299.767 162.516C301.352 161.779 302.94 161.255 304.632 160.837C303.538 166.184 301.954 173.729 300.152 182.219C299.383 185.887 298.674 189.297 297.965 192.49C297.252 193.592 296.705 194.799 296.376 196.056C296.103 197.051 296.487 197.628 296.816 197.943C288.56 237.513 288.996 239.45 290.747 239.974C290.854 240.027 291.02 240.027 291.127 240.027C292.169 240.027 292.934 238.717 294.083 236.044C294.3 235.52 294.027 234.943 293.48 234.734C292.934 234.525 292.332 234.734 292.114 235.258C292.058 235.467 291.947 235.626 291.892 235.782C292.494 229.441 295.723 213.561 298.892 198.361C303.487 197.837 313.711 191.549 319.943 185.416C323.44 185.838 326.285 187.25 328.309 189.662C332.08 194.169 332.409 201.456 329.129 208.636C324.098 219.693 312.618 226.874 298.345 227.868C297.743 227.922 297.307 228.393 297.363 228.97C297.418 229.494 297.854 229.911 298.4 229.911C298.456 229.911 298.456 229.911 298.512 229.911C313.545 228.863 325.738 221.212 331.098 209.422C334.651 201.558 334.211 193.489 329.949 188.405ZM299.332 196.265C299.549 195.217 299.767 194.222 299.985 193.174C302.774 188.982 308.023 186.624 312.669 185.732C314.258 185.47 315.732 185.314 317.154 185.261C310.923 190.972 302.556 195.426 299.332 196.265ZM319.123 183.32C316.991 183.165 314.694 183.32 312.234 183.791C307.643 184.63 303.705 186.518 300.805 189.138C301.296 186.886 301.792 184.684 302.227 182.641C304.14 173.675 305.78 165.762 306.874 160.367C313.763 159.265 320.818 160.731 324.043 164.452C327.434 168.382 326.285 174.306 320.925 181.224C320.378 181.904 319.78 182.641 319.123 183.32Z" fill="#D4AF37"/>
<path id="sign" d="M356.465 198.152C355.974 197.837 355.316 197.944 354.992 198.414C350.887 203.916 347.552 207.376 344.272 209.631C342.632 210.733 341.047 210.941 340.009 210.209C339.352 209.734 337.327 207.638 339.681 200.302C344.985 196.11 347.881 192.126 347.116 190.03C346.843 189.4 346.185 188.982 345.476 188.982C343.289 189.036 339.954 192.65 337.767 199.409C335.085 207.744 337.276 210.782 338.805 211.83C339.57 212.407 340.445 212.669 341.432 212.669C342.687 212.669 344.109 212.198 345.476 211.257C348.974 208.845 352.42 205.28 356.683 199.569C357.012 199.098 356.905 198.468 356.465 198.152ZM345.036 191.181C344.818 192.02 343.892 193.698 341.321 196.212C342.743 193.174 344.272 191.705 345.036 191.181Z" fill="#D4AF37"/>
<path id="sign" d="M377.514 197.996C376.967 197.734 376.314 197.943 376.092 198.467C369.805 211.15 363.847 217.651 362.532 217.438C362.425 217.389 360.512 215.604 366.687 197.419C366.854 196.948 367.234 195.847 366.363 195.27C365.539 194.64 364.612 195.217 363.079 196.212C361.439 197.21 359.196 198.623 357.45 198.414C363.027 189.191 362.481 187.148 361.221 186.362C359.252 185.261 356.412 188.458 355.096 190.292C352.419 194.275 352.474 197.89 355.314 199.724C358.214 201.664 361.985 199.306 364.227 197.89C364.283 197.837 364.283 197.837 364.338 197.784C362.207 204.231 360.841 209.316 360.345 212.828C359.743 216.705 360.183 218.748 361.712 219.325C361.985 219.378 362.207 219.431 362.481 219.431C366.854 219.431 374.452 206.536 378.005 199.36C378.227 198.836 378.005 198.205 377.514 197.996ZM355.425 194.378C356.19 191.549 358.761 188.929 359.91 188.298C359.799 189.138 359.196 191.496 355.699 197.313C355.314 196.736 355.041 195.847 355.425 194.378Z" fill="#D4AF37"/>
<path id="sign" d="M399.985 198.259C399.66 197.784 399.002 197.682 398.567 197.944C394.736 200.302 389.816 203.392 384.733 207.376C385.28 203.761 385.827 199.933 386.373 195.848C386.425 195.324 386.1 194.902 385.66 194.746C385.169 194.591 384.622 194.8 384.405 195.217C383.473 196.687 380.902 200.457 378.771 203.184C377.896 204.232 377.405 204.653 377.131 204.809C376.585 203.13 378.28 195.639 381.722 192.704C383.093 191.496 384.349 191.496 385.716 192.65C386.151 193.015 386.809 193.015 387.193 192.597C387.573 192.18 387.522 191.549 387.138 191.181C384.951 189.298 382.982 189.609 381.722 190.239C377.294 192.335 374.616 201.034 375 204.547C375.107 206.119 375.876 206.696 376.474 206.852C377.951 207.22 379.373 205.75 380.411 204.391C381.505 203.028 382.653 201.456 383.691 200.04C383.256 203.343 382.765 206.434 382.273 209.369C376.422 214.241 370.571 220.373 366.142 228.131C362.807 233.895 361.714 238.77 361.385 241.808C360.949 245.791 361.547 249.095 363.08 250.876C363.9 251.87 364.938 252.394 366.087 252.394C366.416 252.394 366.796 252.345 367.18 252.239C372.429 250.822 379.318 238.873 384.187 210.417C389.871 205.75 395.449 202.291 399.66 199.671C400.151 199.36 400.313 198.73 399.985 198.259ZM366.634 250.298C365.869 250.511 365.267 250.298 364.72 249.619C362.64 247.154 362.316 238.926 367.945 229.126C371.771 222.469 376.696 217.02 381.671 212.566C376.696 240.027 370.131 249.357 366.634 250.298Z" fill="#D4AF37"/>
</g>
<defs>
<clipPath id="clip0_103_159">
<rect width="410" height="393" fill="white"/>
</clipPath>
</defs>
</svg>