<svg width="500" height="500" viewBox="0 0 500 500" fill="none" xmlns="http://www.w3.org/2000/svg">
<rect width="500" height="500" fill="#F5F5F5"/>
<rect x="-2577.5" y="-5505.5" width="1919" height="10868" fill="#F5F5F5"/>
<rect x="-2577.5" y="-5505.5" width="1919" height="10868" stroke="black"/>
<g clip-path="url(#clip0_0_1)" id="mainsvg">
<path id="signsvg" d="M75.7244 202.159C70.7192 198.758 62.6514 198.295 53.1202 200.894C51.9848 201.159 50.9171 201.493 49.7869 201.894C49.8494 201.628 49.9171 201.363 49.9848 201.092C50.1202 200.425 49.6514 199.758 48.9848 199.56C48.3181 199.425 47.5837 199.894 47.4483 200.56C47.3181 201.295 47.115 202.092 46.9171 202.961C40.2504 205.56 33.8494 209.295 28.8494 213.696C19.3806 221.961 16.2452 231.165 20.2452 239.102C20.5108 239.701 21.3129 239.967 21.9119 239.633C22.5785 239.368 22.8442 238.566 22.5108 237.899C20.5108 233.967 18.9119 225.764 30.516 215.628C34.8494 211.831 40.3806 208.493 46.1827 206.029C44.6514 212.696 42.4483 221.764 39.9848 231.831C36.115 247.571 31.7817 265.373 28.6462 279.305C26.9119 286.977 25.7139 292.644 25.0473 296.711C23.9119 303.514 24.1827 304.847 25.516 305.31C25.6462 305.378 25.8494 305.378 26.0473 305.378C27.2452 305.378 28.1827 303.779 29.7139 300.31C30.0473 299.711 29.7139 298.909 29.115 298.644C28.4483 298.378 27.6462 298.644 27.3806 299.31C27.3129 299.514 27.1827 299.711 27.115 299.847C28.1827 292.107 32.4483 273.774 36.8494 255.571C38.4483 258.972 41.4483 261.04 45.3858 261.305C45.6514 261.305 45.9848 261.305 46.2504 261.305C51.3181 261.305 57.3181 258.373 62.7869 253.17C69.3858 246.904 74.99 237.701 78.99 226.498C84.2556 211.831 80.1254 205.159 75.7244 202.159ZM76.5889 225.633C71.7244 239.232 65.4535 247.102 60.9848 251.368C55.7192 256.368 50.1202 259.04 45.5837 258.706C41.7817 258.503 39.2504 256.17 38.4483 252.17C38.3181 251.836 38.115 251.571 37.8494 251.368C39.4483 244.769 41.0473 238.3 42.4483 232.43C45.115 221.43 47.516 211.696 49.1202 204.826C50.6514 204.295 52.2504 203.758 53.7869 203.363C62.5212 201.029 69.99 201.363 74.3233 204.295C80.8546 208.764 79.1879 218.363 76.5889 225.633Z M96.1246 252.102C95.5256 251.701 94.7235 251.836 94.3277 252.435C89.3225 259.435 85.2548 263.836 81.2548 266.706C79.2548 268.107 77.3225 268.373 76.0569 267.441C75.2548 266.836 72.786 264.17 75.6558 254.836C82.1246 249.503 85.6558 244.435 84.7235 241.769C84.3902 240.967 83.5881 240.435 82.7235 240.435C80.0569 240.503 75.9892 245.102 73.3225 253.701C70.0517 264.305 72.7235 268.17 74.5881 269.503C75.5204 270.238 76.5881 270.571 77.7913 270.571C79.3225 270.571 81.0569 269.972 82.7235 268.774C86.9892 265.706 91.1923 261.17 96.3902 253.904C96.7913 253.305 96.661 252.503 96.1246 252.102ZM82.1871 243.232C81.9215 244.3 80.7913 246.435 77.6558 249.633C79.3902 245.769 81.2548 243.899 82.1871 243.232Z M148.801 227.633C147.936 226.43 144.066 225.696 102.66 226.633C103.993 221.232 105.191 216.363 106.259 212.43C106.462 211.696 106.061 211.029 105.394 210.831C104.728 210.628 103.993 211.029 103.795 211.696C102.66 215.894 101.394 220.961 99.9933 226.696C96.3266 226.764 92.3266 226.831 87.9881 226.967C82.0558 227.097 77.3891 227.232 75.5871 227.232C74.8527 227.232 74.2537 227.831 74.2537 228.498C74.2537 229.232 74.8527 229.831 75.5871 229.831C77.4568 229.764 82.1235 229.701 88.0558 229.498C91.1912 229.43 95.0558 229.368 99.3943 229.232C96.5246 241.368 93.2589 255.904 90.3266 270.107C88.1912 280.508 86.4568 289.508 85.3214 296.113C84.7225 299.576 84.3214 302.31 84.1235 304.18C83.8579 306.711 83.7225 308.18 84.9881 308.644C85.1912 308.644 85.3214 308.711 85.5246 308.711C86.6548 308.711 87.2589 307.113 87.7902 305.644C88.0558 304.977 87.7225 304.243 87.0558 303.977C86.9256 303.977 86.8579 303.909 86.7225 303.909C87.3891 298.711 89.3891 287.04 93.2589 268.639C96.1235 254.701 99.2589 240.769 102.061 229.165C120.394 228.764 144.202 228.43 146.936 229.368C147.4 229.764 147.999 229.764 148.535 229.43C149.066 229.034 149.202 228.232 148.801 227.633Z M123.462 252.102C122.863 251.701 122.061 251.836 121.665 252.435C116.66 259.435 112.593 263.836 108.593 266.706C106.593 268.107 104.66 268.373 103.395 267.441C102.593 266.836 100.124 264.17 102.994 254.836C109.462 249.503 112.994 244.435 112.061 241.769C111.728 240.967 110.926 240.435 110.061 240.435C107.395 240.503 103.327 245.102 100.66 253.701C97.3894 264.305 100.061 268.17 101.926 269.503C102.858 270.238 103.926 270.571 105.129 270.571C106.66 270.571 108.395 269.972 110.061 268.774C114.327 265.706 118.53 261.17 123.728 253.904C124.129 253.305 123.999 252.503 123.462 252.102ZM109.525 243.232C109.259 244.3 108.129 246.435 104.994 249.633C106.728 245.769 108.593 243.899 109.525 243.232Z M149.133 251.904C148.466 251.571 147.67 251.836 147.399 252.503C139.732 268.639 132.466 276.909 130.862 276.639C130.732 276.576 128.399 274.305 135.93 251.17C136.133 250.571 136.597 249.17 135.534 248.435C134.529 247.633 133.399 248.368 131.529 249.633C129.529 250.904 126.795 252.701 124.664 252.435C131.466 240.701 130.8 238.102 129.263 237.102C126.862 235.701 123.399 239.769 121.795 242.102C118.529 247.17 118.597 251.769 122.06 254.102C125.597 256.571 130.196 253.571 132.93 251.769C132.998 251.701 132.998 251.701 133.065 251.633C130.466 259.836 128.8 266.305 128.196 270.774C127.461 275.706 127.998 278.305 129.862 279.04C130.196 279.107 130.466 279.175 130.8 279.175C136.133 279.175 145.399 262.769 149.732 253.639C150.003 252.972 149.732 252.17 149.133 251.904ZM122.196 247.3C123.128 243.701 126.263 240.368 127.664 239.566C127.529 240.633 126.795 243.633 122.529 251.034C122.06 250.3 121.727 249.17 122.196 247.3Z M199.477 252.435C198.941 251.967 198.144 252.034 197.675 252.571C194.941 255.769 191.274 257.368 188.274 256.571C185.805 255.904 184.008 253.503 183.342 249.904C183.206 249.3 182.607 248.904 182.008 248.904C181.404 248.904 180.873 249.368 180.805 249.967C179.404 259.972 171.472 271.904 167.67 273.175C167.201 273.305 167.071 273.238 167.071 273.175C166.738 272.904 164.472 269.774 171.54 248.769C171.738 248.102 171.404 247.368 170.738 247.17C170.071 246.904 169.337 247.3 169.071 247.967C161.337 271.107 164.269 274.04 165.201 274.972C165.602 275.305 166.269 275.842 167.269 275.842C167.602 275.842 168.003 275.774 168.472 275.571C170.935 274.774 174.269 271.238 177.274 266.238C179.54 262.503 181.274 258.503 182.342 254.769C183.607 256.972 185.404 258.435 187.607 259.04C191.54 260.04 196.206 258.17 199.607 254.238C200.076 253.701 200.008 252.904 199.477 252.435Z M224.878 252.17C224.279 251.904 223.477 252.17 223.211 252.769C218.144 263.102 214.347 266.373 212.545 266.04C211.81 265.904 209.409 264.503 208.81 252.837C208.81 252.305 208.409 251.837 207.946 251.701C207.409 251.571 206.81 251.701 206.545 252.17C206.144 252.639 205.743 253.17 205.342 253.769C203.675 256.034 201.477 259.102 198.81 261.972C198.409 262.435 198.076 262.706 197.873 262.837C197.409 260.503 199.873 251.571 203.81 248.769C204.941 247.967 206.477 247.368 208.545 249.769C209.008 250.3 209.81 250.368 210.342 249.904C210.878 249.503 210.946 248.633 210.545 248.102C208.008 245.17 205.607 245.232 204.008 245.769C198.873 247.571 195.409 257.435 195.274 261.972C195.206 263.837 195.743 265.04 196.81 265.441C198.477 266.107 200.144 264.305 200.675 263.706C202.941 261.238 205.008 258.571 206.477 256.503C207.211 264.107 209.008 267.904 212.013 268.571C212.279 268.571 212.545 268.639 212.81 268.639C217.347 268.639 222.211 260.706 225.482 253.904C225.816 253.238 225.545 252.503 224.878 252.17Z M248.153 252.102C247.549 251.769 246.752 251.967 246.418 252.639C244.814 255.368 240.616 262.769 238.215 262.503C237.747 262.435 236.413 261.769 235.08 257.102C234.148 253.837 232.882 250.769 230.413 250.633C228.611 250.503 226.611 251.904 223.543 257.639C224.346 254.769 225.215 251.904 225.882 249.571C226.148 248.701 226.346 247.967 226.549 247.238C226.747 246.571 226.346 245.837 225.679 245.633C225.012 245.435 224.278 245.837 224.08 246.571C223.877 247.238 223.679 248.034 223.413 248.837C221.679 254.769 219.08 263.769 218.413 269.238C218.346 269.837 218.747 270.441 219.346 270.571C219.481 270.639 219.543 270.639 219.679 270.639C220.21 270.639 220.679 270.305 220.877 269.837C227.148 254.238 229.679 253.17 230.283 253.17C230.413 253.17 231.346 253.435 232.616 257.837C233.95 262.435 235.679 264.774 237.95 265.04C241.351 265.441 244.418 261.238 248.616 253.904C249.017 253.238 248.752 252.503 248.153 252.102Z M293.16 211.295C292.691 210.894 292.092 210.764 291.493 210.894C288.623 211.831 283.488 225.764 278.556 248.701C278.42 249.102 278.222 249.435 278.019 249.837C277.686 247.238 275.957 246.503 275.353 246.3C272.488 245.435 267.952 248.034 264.821 254.701C262.42 259.706 261.952 266.238 264.952 267.972C266.42 268.837 268.952 268.706 272.618 263.373C274.222 261.102 275.623 258.904 276.957 256.769C276.222 260.571 275.488 264.571 274.821 268.774C273.556 276.243 272.618 282.508 272.087 287.04C271.019 295.909 271.556 297.113 272.889 297.508C273.019 297.576 273.222 297.576 273.353 297.576C274.556 297.576 275.353 296.045 275.754 295.045C276.087 294.446 275.821 293.644 275.155 293.378C274.821 293.175 274.42 293.175 274.087 293.31C274.222 290.441 274.889 283.909 277.353 269.238C278.556 261.904 279.821 255.368 281.025 249.633C286.025 240.165 288.556 232.165 290.623 225.831C290.889 225.029 291.155 224.3 291.358 223.633C294.889 213.029 293.556 211.764 293.16 211.295ZM270.488 261.904C267.952 265.571 266.551 265.904 266.217 265.774C265.217 265.17 264.884 260.571 267.155 255.769C269.42 250.967 272.488 248.701 274.155 248.701C274.353 248.701 274.488 248.701 274.623 248.769C275.686 249.034 275.488 250.967 275.42 251.503C275.353 252.102 275.686 252.701 276.29 252.904C274.623 255.769 272.686 258.769 270.488 261.904ZM288.957 222.831C288.691 223.498 288.426 224.232 288.222 225.029C287.025 228.633 285.691 232.701 283.889 237.3C286.691 226.232 289.222 219.295 290.821 215.831C290.556 217.43 289.957 219.696 288.957 222.831Z M307.626 252.102C307.027 251.701 306.225 251.836 305.829 252.435C300.824 259.435 296.756 263.836 292.756 266.706C290.756 268.107 288.824 268.373 287.558 267.441C286.756 266.836 284.287 264.17 287.157 254.836C293.626 249.503 297.157 244.435 296.225 241.769C295.891 240.967 295.089 240.435 294.225 240.435C291.558 240.503 287.49 245.102 284.824 253.701C281.553 264.305 284.225 268.17 286.089 269.503C287.022 270.238 288.089 270.571 289.292 270.571C290.824 270.571 292.558 269.972 294.225 268.774C298.49 265.706 302.693 261.17 307.891 253.904C308.292 253.305 308.162 252.503 307.626 252.102ZM293.688 243.232C293.423 244.3 292.292 246.435 289.157 249.633C290.891 245.769 292.756 243.899 293.688 243.232Z M330.833 252.102C330.229 251.769 329.432 251.967 329.099 252.639C327.494 255.368 323.297 262.769 320.895 262.503C320.427 262.435 319.093 261.769 317.76 257.102C316.828 253.837 315.562 250.769 313.093 250.633C311.291 250.503 309.291 251.904 306.224 257.639C307.026 254.769 307.895 251.904 308.562 249.571C308.828 248.701 309.026 247.967 309.229 247.238C309.427 246.571 309.026 245.837 308.359 245.633C307.692 245.435 306.958 245.837 306.76 246.571C306.557 247.238 306.359 248.034 306.093 248.837C304.359 254.769 301.76 263.769 301.093 269.238C301.026 269.837 301.427 270.441 302.026 270.571C302.161 270.639 302.224 270.639 302.359 270.639C302.89 270.639 303.359 270.305 303.557 269.837C309.828 254.238 312.359 253.17 312.963 253.17C313.093 253.17 314.026 253.435 315.297 257.837C316.63 262.435 318.359 264.774 320.63 265.04C324.031 265.441 327.099 261.238 331.297 253.904C331.698 253.238 331.432 252.503 330.833 252.102Z M402.377 239.701C399.84 236.566 396.376 234.566 392.173 233.633C392.642 233.097 393.043 232.566 393.439 232.097C397.71 226.363 403.845 215.628 397.173 207.628C392.772 202.295 383.772 200.029 374.705 201.363C374.705 201.227 374.772 201.159 374.772 201.029C374.903 200.363 374.439 199.696 373.705 199.56C373.038 199.425 372.371 199.894 372.236 200.628C372.168 201.029 372.106 201.425 372.038 201.826C369.439 202.425 366.903 203.295 364.434 204.493C353.502 209.826 348.767 219.696 351.366 231.633C351.502 232.3 352.236 232.764 352.903 232.566C353.569 232.43 354.033 231.764 353.903 231.034C351.502 220.43 355.767 211.56 365.569 206.764C367.502 205.826 369.439 205.159 371.502 204.628C370.168 211.43 368.236 221.029 366.038 231.831C365.1 236.498 364.236 240.837 363.371 244.899C362.502 246.3 361.835 247.837 361.434 249.435C361.1 250.701 361.569 251.435 361.97 251.837C351.903 302.18 352.434 304.644 354.569 305.31C354.699 305.378 354.903 305.378 355.033 305.378C356.304 305.378 357.236 303.712 358.637 300.31C358.903 299.644 358.569 298.909 357.903 298.644C357.236 298.378 356.502 298.644 356.236 299.31C356.168 299.576 356.033 299.779 355.965 299.977C356.699 291.909 360.637 271.706 364.502 252.368C370.106 251.701 382.574 243.701 390.173 235.899C394.439 236.435 397.908 238.232 400.377 241.3C404.975 247.034 405.377 256.305 401.377 265.441C395.241 279.508 381.241 288.644 363.835 289.909C363.1 289.977 362.569 290.576 362.637 291.31C362.705 291.977 363.236 292.508 363.903 292.508C363.97 292.508 363.97 292.508 364.038 292.508C382.371 291.175 397.241 281.441 403.778 266.441C408.111 256.435 407.574 246.17 402.377 239.701ZM365.038 249.701C365.304 248.368 365.569 247.102 365.835 245.769C369.236 240.435 375.637 237.435 381.304 236.3C383.241 235.967 385.038 235.769 386.772 235.701C379.173 242.967 368.97 248.633 365.038 249.701ZM389.173 233.232C386.574 233.034 383.772 233.232 380.772 233.831C375.173 234.899 370.371 237.3 366.835 240.633C367.434 237.769 368.038 234.967 368.569 232.368C370.903 220.962 372.903 210.894 374.236 204.029C382.637 202.628 391.241 204.493 395.173 209.227C399.309 214.227 397.908 221.764 391.371 230.566C390.705 231.43 389.975 232.368 389.173 233.232Z M434.713 252.102C434.114 251.701 433.312 251.836 432.916 252.435C427.911 259.435 423.843 263.836 419.843 266.706C417.843 268.107 415.911 268.373 414.645 267.441C413.843 266.836 411.375 264.17 414.244 254.836C420.713 249.503 424.244 244.435 423.312 241.769C422.979 240.967 422.177 240.435 421.312 240.435C418.645 240.503 414.578 245.102 411.911 253.701C408.64 264.305 411.312 268.17 413.177 269.503C414.109 270.238 415.177 270.571 416.38 270.571C417.911 270.571 419.645 269.972 421.312 268.774C425.578 265.706 429.781 261.17 434.979 253.904C435.38 253.305 435.25 252.503 434.713 252.102ZM420.776 243.232C420.51 244.3 419.38 246.435 416.244 249.633C417.979 245.769 419.843 243.899 420.776 243.232Z M460.384 251.904C459.717 251.571 458.92 251.836 458.65 252.503C450.983 268.639 443.717 276.909 442.113 276.639C441.983 276.576 439.65 274.305 447.181 251.17C447.384 250.571 447.847 249.17 446.785 248.435C445.78 247.633 444.65 248.368 442.78 249.633C440.78 250.904 438.045 252.701 435.915 252.435C442.717 240.701 442.051 238.102 440.514 237.102C438.113 235.701 434.65 239.769 433.045 242.102C429.78 247.17 429.847 251.769 433.311 254.102C436.847 256.571 441.446 253.571 444.181 251.769C444.248 251.701 444.248 251.701 444.316 251.633C441.717 259.836 440.051 266.305 439.446 270.774C438.712 275.706 439.248 278.305 441.113 279.04C441.446 279.107 441.717 279.175 442.051 279.175C447.384 279.175 456.65 262.769 460.983 253.639C461.254 252.972 460.983 252.17 460.384 251.904ZM433.446 247.3C434.379 243.701 437.514 240.368 438.915 239.566C438.78 240.633 438.045 243.633 433.78 251.034C433.311 250.3 432.978 249.17 433.446 247.3Z M487.787 252.238C487.391 251.633 486.589 251.503 486.058 251.837C481.386 254.837 475.386 258.769 469.188 263.837C469.855 259.238 470.522 254.368 471.188 249.17C471.251 248.503 470.855 247.967 470.318 247.769C469.719 247.571 469.053 247.837 468.787 248.368C467.652 250.238 464.516 255.034 461.917 258.503C460.85 259.837 460.251 260.373 459.917 260.571C459.251 258.435 461.318 248.904 465.516 245.17C467.188 243.633 468.719 243.633 470.386 245.102C470.917 245.566 471.719 245.566 472.188 245.034C472.652 244.503 472.589 243.701 472.12 243.232C469.454 240.837 467.053 241.232 465.516 242.034C460.115 244.701 456.85 255.769 457.318 260.238C457.449 262.238 458.386 262.972 459.115 263.17C460.917 263.639 462.652 261.769 463.917 260.04C465.251 258.305 466.652 256.305 467.917 254.503C467.386 258.706 466.787 262.639 466.188 266.373C459.053 272.571 451.917 280.373 446.516 290.243C442.449 297.576 441.115 303.779 440.714 307.644C440.183 312.712 440.912 316.915 442.782 319.18C443.782 320.446 445.048 321.113 446.449 321.113C446.85 321.113 447.313 321.05 447.782 320.915C454.183 319.113 462.584 303.909 468.522 267.706C475.454 261.769 482.256 257.368 487.391 254.034C487.99 253.639 488.188 252.837 487.787 252.238ZM447.115 318.446C446.183 318.717 445.449 318.446 444.782 317.581C442.245 314.446 441.85 303.977 448.714 291.508C453.381 283.04 459.386 276.107 465.454 270.441C459.386 305.378 451.381 317.248 447.115 318.446Z" fill="#A0A0A0"/>
</g>
<defs>
<clipPath id="clip0_0_1">
<rect width="500" height="500" fill="white"/>
</clipPath>
</defs>
</svg>
